<svg xmlns="http://www.w3.org/2000/svg" class="slot-ico slot-ico-tile" viewBox="0 0 24 24" width="32" height="32" role="img" aria-label="totem"><style>.g{fill:#8a9ab8}.gs{stroke:#8a9ab8}.d{fill:#1a1e26}</style><defs><linearGradient id="slotTileBg" x1="0" y1="0" x2="0" y2="1">
    <stop offset="0" stop-color="#232833"/><stop offset="1" stop-color="#14171d"/></linearGradient></defs><rect width="24" height="24" rx="6" fill="url(#slotTileBg)"/><g transform="translate(12 12) scale(.64) translate(-12 -12)"><path class="g" d="M6.6 1.8h12.2v20.4H6.6a2.8 2.8 0 0 1-2.8-2.8V4.6a2.8 2.8 0 0 1 2.8-2.8z"/>
    <rect class="g" x="18.8" y="3.4" width="1.6" height="17.2" rx=".5"/>
    <rect class="d" x="6.4" y="1.8" width="1.3" height="20.4"/>
    <path class="d" d="M14.6 1.8h2.6v6.6l-1.3-1.5-1.3 1.5z"/>
    <path class="d" d="M9.6 12.4h6.8v1.4H9.6zM9.6 15.4h4.6v1.4H9.6z"/></g></svg>
