<svg xmlns="http://www.w3.org/2000/svg" class="slot-ico slot-ico-solid" viewBox="0 0 24 24" width="32" height="32" role="img" aria-label="artifact-cat"><style>.g{fill:#c9a84c}.gs{stroke:#c9a84c}.d{fill:#111318}</style><path class="g" d="M9.1 2.6 11.8 5.6 8.9 7.1zM14.9 2.6 12.2 5.6l2.9 1.5z"/>
    <circle class="g" cx="12" cy="7.1" r="3.4"/>
    <path class="g" d="M12 8.8c2.9 0 4.8 3.3 5.2 10.6H6.8C7.2 12.1 9.1 8.8 12 8.8z"/>
    <path class="g" d="M17 19.2c1.8 0 3-1 3-2.4s-.9-2.3-2.1-2.3v1.5c.4 0 .7.3.7.8 0 .6-.6.9-1.6.9z"/>
    <rect class="g" x="5.6" y="19.2" width="12.8" height="2.2" rx=".7"/>
    <circle class="d" cx="10.6" cy="6.8" r=".85"/><circle class="d" cx="13.4" cy="6.8" r=".85"/></svg>
