<svg xmlns="http://www.w3.org/2000/svg" class="slot-ico slot-ico-solid" viewBox="0 0 24 24" width="32" height="32" role="img" aria-label="artifact-fang"><style>.g{fill:#8a9ab8}.gs{stroke:#8a9ab8}.d{fill:#111318}</style><path class="g" fill-rule="evenodd" d="M12 1.2a1.9 1.9 0 1 0 0 3.8 1.9 1.9 0 1 0 0-3.8zm0 1.1a.8.8 0 1 1 0 1.6.8.8 0 0 1 0-1.6z"/>
    <path class="g" d="M8.2 4.6h7.6c.7 0 1.2.6 1.1 1.3l-1.5 8.4c-.7 4.1-1.7 6.6-3.4 8.1-1.7-1.5-2.7-4-3.4-8.1L7.1 5.9c-.1-.7.4-1.3 1.1-1.3z"/>
    <path class="d" d="M7.6 7.4h8.8l-.25 1.4H7.85zM8.05 10.2h7.9l-.25 1.4H8.3z"/></svg>
